<mxfile host="Electron" agent="Mozilla/5.0 (Windows NT 10.0; Win64; x64) AppleWebKit/537.36 (KHTML, like Gecko) draw.io/25.0.2 Chrome/128.0.6613.186 Electron/32.2.5 Safari/537.36" version="25.0.2">
  <diagram name="Страница — 1" id="m0aqDX5a4y5vVacSmw0y">
    <mxGraphModel dx="2271" dy="2622" grid="1" gridSize="10" guides="1" tooltips="1" connect="1" arrows="1" fold="1" page="1" pageScale="1" pageWidth="827" pageHeight="1169" math="0" shadow="0">
      <root>
        <mxCell id="0" />
        <mxCell id="1" parent="0" />
        <mxCell id="jCxehiMEUvxZO1RVhI75-6" style="edgeStyle=orthogonalEdgeStyle;rounded=0;orthogonalLoop=1;jettySize=auto;html=1;exitX=0.5;exitY=1;exitDx=0;exitDy=0;" edge="1" parent="1" source="jCxehiMEUvxZO1RVhI75-5" target="jCxehiMEUvxZO1RVhI75-8">
          <mxGeometry relative="1" as="geometry">
            <mxPoint x="320" y="120" as="targetPoint" />
            <Array as="points">
              <mxPoint x="335" y="100" />
              <mxPoint x="620" y="100" />
              <mxPoint x="620" y="175" />
            </Array>
          </mxGeometry>
        </mxCell>
        <mxCell id="jCxehiMEUvxZO1RVhI75-5" value="" style="ellipse;" vertex="1" parent="1">
          <mxGeometry x="320" y="-40" width="30" height="30" as="geometry" />
        </mxCell>
        <mxCell id="jCxehiMEUvxZO1RVhI75-11" style="edgeStyle=orthogonalEdgeStyle;rounded=0;orthogonalLoop=1;jettySize=auto;html=1;curved=0;exitX=1;exitY=1;exitDx=0;exitDy=-5;exitPerimeter=0;entryX=0.5;entryY=0;entryDx=0;entryDy=0;" edge="1" parent="1" source="jCxehiMEUvxZO1RVhI75-8" target="jCxehiMEUvxZO1RVhI75-9">
          <mxGeometry relative="1" as="geometry" />
        </mxCell>
        <mxCell id="jCxehiMEUvxZO1RVhI75-8" value="" style="html=1;points=[[0,0,0,0,5],[0,1,0,0,-5],[1,0,0,0,5],[1,1,0,0,-5]];perimeter=orthogonalPerimeter;outlineConnect=0;targetShapes=umlLifeline;portConstraint=eastwest;newEdgeStyle={&quot;curved&quot;:0,&quot;rounded&quot;:0};rotation=90;" vertex="1" parent="1">
          <mxGeometry x="326.25" y="-86.25" width="17.5" height="530" as="geometry" />
        </mxCell>
        <mxCell id="jCxehiMEUvxZO1RVhI75-12" style="edgeStyle=orthogonalEdgeStyle;rounded=0;orthogonalLoop=1;jettySize=auto;html=1;exitX=0.5;exitY=1;exitDx=0;exitDy=0;entryX=0.5;entryY=0;entryDx=0;entryDy=0;" edge="1" parent="1" source="jCxehiMEUvxZO1RVhI75-9" target="jCxehiMEUvxZO1RVhI75-10">
          <mxGeometry relative="1" as="geometry" />
        </mxCell>
        <mxCell id="jCxehiMEUvxZO1RVhI75-9" value="Запуск приложения" style="rounded=1;whiteSpace=wrap;html=1;" vertex="1" parent="1">
          <mxGeometry x="275" y="240" width="120" height="40" as="geometry" />
        </mxCell>
        <mxCell id="jCxehiMEUvxZO1RVhI75-13" style="edgeStyle=orthogonalEdgeStyle;rounded=0;orthogonalLoop=1;jettySize=auto;html=1;entryX=1;entryY=0.5;entryDx=0;entryDy=0;" edge="1" parent="1" source="jCxehiMEUvxZO1RVhI75-10" target="jCxehiMEUvxZO1RVhI75-17">
          <mxGeometry relative="1" as="geometry">
            <mxPoint x="85.71428571428572" y="360" as="targetPoint" />
          </mxGeometry>
        </mxCell>
        <mxCell id="jCxehiMEUvxZO1RVhI75-15" value="Нет" style="edgeLabel;html=1;align=center;verticalAlign=middle;resizable=0;points=[];" vertex="1" connectable="0" parent="jCxehiMEUvxZO1RVhI75-13">
          <mxGeometry x="-0.0075" relative="1" as="geometry">
            <mxPoint as="offset" />
          </mxGeometry>
        </mxCell>
        <mxCell id="jCxehiMEUvxZO1RVhI75-14" style="edgeStyle=orthogonalEdgeStyle;rounded=0;orthogonalLoop=1;jettySize=auto;html=1;exitX=0.5;exitY=1;exitDx=0;exitDy=0;entryX=0.5;entryY=0;entryDx=0;entryDy=0;" edge="1" parent="1" source="jCxehiMEUvxZO1RVhI75-10" target="jCxehiMEUvxZO1RVhI75-18">
          <mxGeometry relative="1" as="geometry">
            <mxPoint x="335.1428571428571" y="520" as="targetPoint" />
          </mxGeometry>
        </mxCell>
        <mxCell id="jCxehiMEUvxZO1RVhI75-16" value="Да" style="edgeLabel;html=1;align=center;verticalAlign=middle;resizable=0;points=[];" vertex="1" connectable="0" parent="jCxehiMEUvxZO1RVhI75-14">
          <mxGeometry x="-0.1995" y="-1" relative="1" as="geometry">
            <mxPoint as="offset" />
          </mxGeometry>
        </mxCell>
        <mxCell id="jCxehiMEUvxZO1RVhI75-10" value="Сеть подключена?" style="rhombus;whiteSpace=wrap;html=1;" vertex="1" parent="1">
          <mxGeometry x="280" y="310" width="110" height="100" as="geometry" />
        </mxCell>
        <mxCell id="jCxehiMEUvxZO1RVhI75-38" style="edgeStyle=orthogonalEdgeStyle;rounded=0;orthogonalLoop=1;jettySize=auto;html=1;exitX=0;exitY=0.5;exitDx=0;exitDy=0;entryX=0.5;entryY=0;entryDx=0;entryDy=0;" edge="1" parent="1" source="jCxehiMEUvxZO1RVhI75-17" target="jCxehiMEUvxZO1RVhI75-33">
          <mxGeometry relative="1" as="geometry">
            <mxPoint x="-210" y="359.8421052631579" as="targetPoint" />
          </mxGeometry>
        </mxCell>
        <mxCell id="jCxehiMEUvxZO1RVhI75-17" value="Сообщение об ошибке" style="rounded=1;whiteSpace=wrap;html=1;" vertex="1" parent="1">
          <mxGeometry x="-40" y="340" width="120" height="40" as="geometry" />
        </mxCell>
        <mxCell id="jCxehiMEUvxZO1RVhI75-20" style="edgeStyle=orthogonalEdgeStyle;rounded=0;orthogonalLoop=1;jettySize=auto;html=1;exitX=0.5;exitY=1;exitDx=0;exitDy=0;entryX=0.5;entryY=0;entryDx=0;entryDy=0;" edge="1" parent="1" source="jCxehiMEUvxZO1RVhI75-18" target="jCxehiMEUvxZO1RVhI75-21">
          <mxGeometry relative="1" as="geometry">
            <mxPoint x="335.3684210526317" y="620" as="targetPoint" />
          </mxGeometry>
        </mxCell>
        <mxCell id="jCxehiMEUvxZO1RVhI75-18" value="Загрузка экрана входа" style="rounded=1;whiteSpace=wrap;html=1;" vertex="1" parent="1">
          <mxGeometry x="275" y="530" width="120" height="40" as="geometry" />
        </mxCell>
        <mxCell id="jCxehiMEUvxZO1RVhI75-23" style="edgeStyle=orthogonalEdgeStyle;rounded=0;orthogonalLoop=1;jettySize=auto;html=1;exitX=0.5;exitY=1;exitDx=0;exitDy=0;entryX=0.5;entryY=0;entryDx=0;entryDy=0;" edge="1" parent="1" source="jCxehiMEUvxZO1RVhI75-21" target="jCxehiMEUvxZO1RVhI75-22">
          <mxGeometry relative="1" as="geometry" />
        </mxCell>
        <mxCell id="jCxehiMEUvxZO1RVhI75-21" value="Ввод логина и пароля" style="rounded=1;whiteSpace=wrap;html=1;" vertex="1" parent="1">
          <mxGeometry x="275" y="650" width="120" height="40" as="geometry" />
        </mxCell>
        <mxCell id="jCxehiMEUvxZO1RVhI75-24" style="edgeStyle=orthogonalEdgeStyle;rounded=0;orthogonalLoop=1;jettySize=auto;html=1;exitX=0;exitY=0.5;exitDx=0;exitDy=0;entryX=1;entryY=0.5;entryDx=0;entryDy=0;" edge="1" parent="1" source="jCxehiMEUvxZO1RVhI75-22" target="jCxehiMEUvxZO1RVhI75-26">
          <mxGeometry relative="1" as="geometry">
            <mxPoint x="70" y="839.8421052631579" as="targetPoint" />
          </mxGeometry>
        </mxCell>
        <mxCell id="jCxehiMEUvxZO1RVhI75-25" value="Неверно" style="edgeLabel;html=1;align=center;verticalAlign=middle;resizable=0;points=[];" vertex="1" connectable="0" parent="jCxehiMEUvxZO1RVhI75-24">
          <mxGeometry x="-0.007" y="-1" relative="1" as="geometry">
            <mxPoint as="offset" />
          </mxGeometry>
        </mxCell>
        <mxCell id="jCxehiMEUvxZO1RVhI75-27" style="edgeStyle=orthogonalEdgeStyle;rounded=0;orthogonalLoop=1;jettySize=auto;html=1;exitX=1;exitY=0.5;exitDx=0;exitDy=0;entryX=0;entryY=0.5;entryDx=0;entryDy=0;" edge="1" parent="1" source="jCxehiMEUvxZO1RVhI75-22" target="jCxehiMEUvxZO1RVhI75-39">
          <mxGeometry relative="1" as="geometry">
            <mxPoint x="560" y="839.8421052631579" as="targetPoint" />
          </mxGeometry>
        </mxCell>
        <mxCell id="jCxehiMEUvxZO1RVhI75-28" value="верно" style="edgeLabel;html=1;align=center;verticalAlign=middle;resizable=0;points=[];" vertex="1" connectable="0" parent="jCxehiMEUvxZO1RVhI75-27">
          <mxGeometry x="0.0122" relative="1" as="geometry">
            <mxPoint as="offset" />
          </mxGeometry>
        </mxCell>
        <mxCell id="jCxehiMEUvxZO1RVhI75-22" value="Проверка правильности введеных данных" style="rhombus;whiteSpace=wrap;html=1;" vertex="1" parent="1">
          <mxGeometry x="250" y="770" width="170" height="140" as="geometry" />
        </mxCell>
        <mxCell id="jCxehiMEUvxZO1RVhI75-29" style="edgeStyle=orthogonalEdgeStyle;rounded=0;orthogonalLoop=1;jettySize=auto;html=1;exitX=0;exitY=0.5;exitDx=0;exitDy=0;entryX=1;entryY=0.5;entryDx=0;entryDy=0;" edge="1" parent="1" source="jCxehiMEUvxZO1RVhI75-26" target="jCxehiMEUvxZO1RVhI75-30">
          <mxGeometry relative="1" as="geometry">
            <mxPoint x="-190" y="839.8421052631579" as="targetPoint" />
          </mxGeometry>
        </mxCell>
        <mxCell id="jCxehiMEUvxZO1RVhI75-26" value="Отображение ошибки" style="rounded=1;whiteSpace=wrap;html=1;" vertex="1" parent="1">
          <mxGeometry x="-70" y="820" width="120" height="40" as="geometry" />
        </mxCell>
        <mxCell id="jCxehiMEUvxZO1RVhI75-31" style="edgeStyle=orthogonalEdgeStyle;rounded=0;orthogonalLoop=1;jettySize=auto;html=1;exitX=0;exitY=0.5;exitDx=0;exitDy=0;entryX=0.5;entryY=1;entryDx=0;entryDy=0;" edge="1" parent="1" source="jCxehiMEUvxZO1RVhI75-30" target="jCxehiMEUvxZO1RVhI75-33">
          <mxGeometry relative="1" as="geometry">
            <mxPoint x="-450" y="670" as="targetPoint" />
          </mxGeometry>
        </mxCell>
        <mxCell id="jCxehiMEUvxZO1RVhI75-32" value="не перешёл" style="edgeLabel;html=1;align=center;verticalAlign=middle;resizable=0;points=[];" vertex="1" connectable="0" parent="jCxehiMEUvxZO1RVhI75-31">
          <mxGeometry x="0.3221" relative="1" as="geometry">
            <mxPoint as="offset" />
          </mxGeometry>
        </mxCell>
        <mxCell id="jCxehiMEUvxZO1RVhI75-34" style="edgeStyle=orthogonalEdgeStyle;rounded=0;orthogonalLoop=1;jettySize=auto;html=1;exitX=0.5;exitY=0;exitDx=0;exitDy=0;" edge="1" parent="1" source="jCxehiMEUvxZO1RVhI75-30" target="jCxehiMEUvxZO1RVhI75-35">
          <mxGeometry relative="1" as="geometry">
            <mxPoint x="-284.68421052631584" y="650" as="targetPoint" />
            <Array as="points">
              <mxPoint x="-285" y="690" />
              <mxPoint x="-285" y="690" />
            </Array>
          </mxGeometry>
        </mxCell>
        <mxCell id="jCxehiMEUvxZO1RVhI75-36" value="восстановить" style="edgeLabel;html=1;align=center;verticalAlign=middle;resizable=0;points=[];" vertex="1" connectable="0" parent="jCxehiMEUvxZO1RVhI75-34">
          <mxGeometry x="-0.0211" y="1" relative="1" as="geometry">
            <mxPoint as="offset" />
          </mxGeometry>
        </mxCell>
        <mxCell id="jCxehiMEUvxZO1RVhI75-30" value="Экран восстановления пароля" style="rhombus;whiteSpace=wrap;html=1;" vertex="1" parent="1">
          <mxGeometry x="-370" y="770" width="170" height="140" as="geometry" />
        </mxCell>
        <mxCell id="jCxehiMEUvxZO1RVhI75-33" value="" style="ellipse;html=1;shape=endState;fillColor=#000000;strokeColor=#ff0000;" vertex="1" parent="1">
          <mxGeometry x="-550" y="650" width="30" height="30" as="geometry" />
        </mxCell>
        <mxCell id="jCxehiMEUvxZO1RVhI75-37" style="edgeStyle=orthogonalEdgeStyle;rounded=0;orthogonalLoop=1;jettySize=auto;html=1;exitX=1;exitY=0.5;exitDx=0;exitDy=0;entryX=0;entryY=0.5;entryDx=0;entryDy=0;" edge="1" parent="1" source="jCxehiMEUvxZO1RVhI75-35" target="jCxehiMEUvxZO1RVhI75-18">
          <mxGeometry relative="1" as="geometry" />
        </mxCell>
        <mxCell id="jCxehiMEUvxZO1RVhI75-35" value="восстановление пароля" style="rounded=1;whiteSpace=wrap;html=1;" vertex="1" parent="1">
          <mxGeometry x="-60.00421052631583" y="510" width="120" height="60" as="geometry" />
        </mxCell>
        <mxCell id="jCxehiMEUvxZO1RVhI75-40" style="edgeStyle=orthogonalEdgeStyle;rounded=0;orthogonalLoop=1;jettySize=auto;html=1;exitX=0.5;exitY=0;exitDx=0;exitDy=0;entryX=1;entryY=1;entryDx=0;entryDy=-5;entryPerimeter=0;" edge="1" parent="1" source="jCxehiMEUvxZO1RVhI75-39" target="jCxehiMEUvxZO1RVhI75-45">
          <mxGeometry relative="1" as="geometry">
            <mxPoint x="639.5263157894738" y="710" as="targetPoint" />
          </mxGeometry>
        </mxCell>
        <mxCell id="jCxehiMEUvxZO1RVhI75-39" value="вход в аккаунт" style="rounded=1;whiteSpace=wrap;html=1;" vertex="1" parent="1">
          <mxGeometry x="620" y="810" width="120" height="60" as="geometry" />
        </mxCell>
        <mxCell id="jCxehiMEUvxZO1RVhI75-46" style="edgeStyle=orthogonalEdgeStyle;rounded=0;orthogonalLoop=1;jettySize=auto;html=1;curved=0;exitX=1;exitY=0;exitDx=0;exitDy=5;exitPerimeter=0;" edge="1" parent="1" source="jCxehiMEUvxZO1RVhI75-45" target="jCxehiMEUvxZO1RVhI75-51">
          <mxGeometry relative="1" as="geometry">
            <mxPoint x="1158.4736842105262" y="830" as="targetPoint" />
          </mxGeometry>
        </mxCell>
        <mxCell id="jCxehiMEUvxZO1RVhI75-47" style="edgeStyle=orthogonalEdgeStyle;rounded=0;orthogonalLoop=1;jettySize=auto;html=1;curved=0;exitX=0;exitY=0;exitDx=0;exitDy=5;exitPerimeter=0;" edge="1" parent="1" source="jCxehiMEUvxZO1RVhI75-45" target="jCxehiMEUvxZO1RVhI75-50">
          <mxGeometry relative="1" as="geometry">
            <mxPoint x="1158.4736842105262" y="520" as="targetPoint" />
          </mxGeometry>
        </mxCell>
        <mxCell id="jCxehiMEUvxZO1RVhI75-48" style="edgeStyle=orthogonalEdgeStyle;rounded=0;orthogonalLoop=1;jettySize=auto;html=1;curved=0;exitX=0;exitY=1;exitDx=0;exitDy=-5;exitPerimeter=0;" edge="1" parent="1" source="jCxehiMEUvxZO1RVhI75-45" target="jCxehiMEUvxZO1RVhI75-49">
          <mxGeometry relative="1" as="geometry">
            <mxPoint x="638.4736842105262" y="540" as="targetPoint" />
          </mxGeometry>
        </mxCell>
        <mxCell id="jCxehiMEUvxZO1RVhI75-98" style="edgeStyle=orthogonalEdgeStyle;rounded=0;orthogonalLoop=1;jettySize=auto;html=1;curved=0;exitX=0;exitY=0;exitDx=0;exitDy=5;exitPerimeter=0;" edge="1" parent="1" source="jCxehiMEUvxZO1RVhI75-45" target="jCxehiMEUvxZO1RVhI75-99">
          <mxGeometry relative="1" as="geometry">
            <mxPoint x="1290" y="1001.8823242187495" as="targetPoint" />
            <Array as="points">
              <mxPoint x="1180" y="661" />
              <mxPoint x="1180" y="740" />
              <mxPoint x="1240" y="740" />
              <mxPoint x="1240" y="790" />
              <mxPoint x="1290" y="790" />
            </Array>
          </mxGeometry>
        </mxCell>
        <mxCell id="jCxehiMEUvxZO1RVhI75-106" style="edgeStyle=orthogonalEdgeStyle;rounded=0;orthogonalLoop=1;jettySize=auto;html=1;curved=0;exitX=0;exitY=1;exitDx=0;exitDy=-5;exitPerimeter=0;" edge="1" parent="1" source="jCxehiMEUvxZO1RVhI75-45" target="jCxehiMEUvxZO1RVhI75-107">
          <mxGeometry relative="1" as="geometry">
            <mxPoint x="510" y="1070" as="targetPoint" />
          </mxGeometry>
        </mxCell>
        <mxCell id="jCxehiMEUvxZO1RVhI75-45" value="" style="html=1;points=[[0,0,0,0,5],[0,1,0,0,-5],[1,0,0,0,5],[1,1,0,0,-5]];perimeter=orthogonalPerimeter;outlineConnect=0;targetShapes=umlLifeline;portConstraint=eastwest;newEdgeStyle={&quot;curved&quot;:0,&quot;rounded&quot;:0};rotation=90;" vertex="1" parent="1">
          <mxGeometry x="890" y="405" width="17.5" height="530" as="geometry" />
        </mxCell>
        <mxCell id="jCxehiMEUvxZO1RVhI75-49" value="открытие чата" style="rounded=1;whiteSpace=wrap;html=1;" vertex="1" parent="1">
          <mxGeometry x="578.4736842105262" y="490" width="120" height="60" as="geometry" />
        </mxCell>
        <mxCell id="jCxehiMEUvxZO1RVhI75-60" style="edgeStyle=orthogonalEdgeStyle;rounded=0;orthogonalLoop=1;jettySize=auto;html=1;exitX=0.75;exitY=1;exitDx=0;exitDy=0;" edge="1" parent="1" source="jCxehiMEUvxZO1RVhI75-50" target="jCxehiMEUvxZO1RVhI75-61">
          <mxGeometry relative="1" as="geometry">
            <mxPoint x="1158.4736842105262" y="400" as="targetPoint" />
          </mxGeometry>
        </mxCell>
        <mxCell id="jCxehiMEUvxZO1RVhI75-62" style="edgeStyle=orthogonalEdgeStyle;rounded=0;orthogonalLoop=1;jettySize=auto;html=1;exitX=1;exitY=0.5;exitDx=0;exitDy=0;" edge="1" parent="1" source="jCxehiMEUvxZO1RVhI75-50" target="jCxehiMEUvxZO1RVhI75-63">
          <mxGeometry relative="1" as="geometry">
            <mxPoint x="1450" y="480" as="targetPoint" />
          </mxGeometry>
        </mxCell>
        <mxCell id="jCxehiMEUvxZO1RVhI75-66" style="edgeStyle=orthogonalEdgeStyle;rounded=0;orthogonalLoop=1;jettySize=auto;html=1;exitX=0;exitY=0.5;exitDx=0;exitDy=0;entryX=0.75;entryY=1;entryDx=0;entryDy=0;" edge="1" parent="1" source="jCxehiMEUvxZO1RVhI75-50" target="jCxehiMEUvxZO1RVhI75-49">
          <mxGeometry relative="1" as="geometry">
            <Array as="points">
              <mxPoint x="1098" y="570" />
              <mxPoint x="668" y="570" />
            </Array>
          </mxGeometry>
        </mxCell>
        <mxCell id="jCxehiMEUvxZO1RVhI75-87" style="edgeStyle=orthogonalEdgeStyle;rounded=0;orthogonalLoop=1;jettySize=auto;html=1;exitX=1;exitY=1;exitDx=0;exitDy=0;" edge="1" parent="1" source="jCxehiMEUvxZO1RVhI75-50" target="jCxehiMEUvxZO1RVhI75-88">
          <mxGeometry relative="1" as="geometry">
            <mxPoint x="1420" y="619.9999999999995" as="targetPoint" />
          </mxGeometry>
        </mxCell>
        <mxCell id="jCxehiMEUvxZO1RVhI75-50" value="создать группу" style="rounded=1;whiteSpace=wrap;html=1;" vertex="1" parent="1">
          <mxGeometry x="1098.4736842105262" y="490" width="120" height="60" as="geometry" />
        </mxCell>
        <mxCell id="jCxehiMEUvxZO1RVhI75-67" style="edgeStyle=orthogonalEdgeStyle;rounded=0;orthogonalLoop=1;jettySize=auto;html=1;exitX=0.5;exitY=1;exitDx=0;exitDy=0;" edge="1" parent="1" source="jCxehiMEUvxZO1RVhI75-51" target="jCxehiMEUvxZO1RVhI75-68">
          <mxGeometry relative="1" as="geometry">
            <mxPoint x="1158.4736842105262" y="950" as="targetPoint" />
          </mxGeometry>
        </mxCell>
        <mxCell id="jCxehiMEUvxZO1RVhI75-51" value="найти новый контакт" style="rounded=1;whiteSpace=wrap;html=1;" vertex="1" parent="1">
          <mxGeometry x="1098.4736842105262" y="800" width="120" height="60" as="geometry" />
        </mxCell>
        <mxCell id="jCxehiMEUvxZO1RVhI75-54" value="Отправить файл" style="rounded=1;whiteSpace=wrap;html=1;" vertex="1" parent="1">
          <mxGeometry x="820" y="270.0021052631579" width="120" height="60" as="geometry" />
        </mxCell>
        <mxCell id="jCxehiMEUvxZO1RVhI75-76" style="edgeStyle=orthogonalEdgeStyle;rounded=0;orthogonalLoop=1;jettySize=auto;html=1;exitX=0.5;exitY=0;exitDx=0;exitDy=0;entryX=0.5;entryY=1;entryDx=0;entryDy=0;" edge="1" parent="1" source="jCxehiMEUvxZO1RVhI75-55" target="jCxehiMEUvxZO1RVhI75-59">
          <mxGeometry relative="1" as="geometry" />
        </mxCell>
        <mxCell id="jCxehiMEUvxZO1RVhI75-77" style="edgeStyle=orthogonalEdgeStyle;rounded=0;orthogonalLoop=1;jettySize=auto;html=1;exitX=1;exitY=0.25;exitDx=0;exitDy=0;entryX=0;entryY=0.5;entryDx=0;entryDy=0;" edge="1" parent="1" source="jCxehiMEUvxZO1RVhI75-55" target="jCxehiMEUvxZO1RVhI75-57">
          <mxGeometry relative="1" as="geometry" />
        </mxCell>
        <mxCell id="jCxehiMEUvxZO1RVhI75-78" style="edgeStyle=orthogonalEdgeStyle;rounded=0;orthogonalLoop=1;jettySize=auto;html=1;exitX=0.75;exitY=1;exitDx=0;exitDy=0;entryX=0;entryY=0.5;entryDx=0;entryDy=0;" edge="1" parent="1" source="jCxehiMEUvxZO1RVhI75-55" target="jCxehiMEUvxZO1RVhI75-54">
          <mxGeometry relative="1" as="geometry" />
        </mxCell>
        <mxCell id="jCxehiMEUvxZO1RVhI75-82" style="edgeStyle=orthogonalEdgeStyle;rounded=0;orthogonalLoop=1;jettySize=auto;html=1;exitX=0.25;exitY=0;exitDx=0;exitDy=0;" edge="1" parent="1" source="jCxehiMEUvxZO1RVhI75-55" target="jCxehiMEUvxZO1RVhI75-83">
          <mxGeometry relative="1" as="geometry">
            <mxPoint x="720" y="80" as="targetPoint" />
          </mxGeometry>
        </mxCell>
        <mxCell id="jCxehiMEUvxZO1RVhI75-55" value="написать сообщение" style="rounded=1;whiteSpace=wrap;html=1;" vertex="1" parent="1">
          <mxGeometry x="600.0036842105262" y="240" width="120" height="60" as="geometry" />
        </mxCell>
        <mxCell id="jCxehiMEUvxZO1RVhI75-57" value="отправить голосовое сообщение" style="rounded=1;whiteSpace=wrap;html=1;" vertex="1" parent="1">
          <mxGeometry x="907.5" y="200" width="120" height="60" as="geometry" />
        </mxCell>
        <mxCell id="jCxehiMEUvxZO1RVhI75-59" value="отправить видеосообщение" style="rounded=1;whiteSpace=wrap;html=1;" vertex="1" parent="1">
          <mxGeometry x="740" y="130.0021052631579" width="120" height="60" as="geometry" />
        </mxCell>
        <mxCell id="jCxehiMEUvxZO1RVhI75-61" value="дать название группы" style="rounded=1;whiteSpace=wrap;html=1;" vertex="1" parent="1">
          <mxGeometry x="1218.4736842105262" y="650" width="120" height="60" as="geometry" />
        </mxCell>
        <mxCell id="jCxehiMEUvxZO1RVhI75-63" value="добавить участников" style="rounded=1;whiteSpace=wrap;html=1;" vertex="1" parent="1">
          <mxGeometry x="1320" y="490" width="120" height="60" as="geometry" />
        </mxCell>
        <mxCell id="jCxehiMEUvxZO1RVhI75-71" style="edgeStyle=orthogonalEdgeStyle;rounded=0;orthogonalLoop=1;jettySize=auto;html=1;exitX=0;exitY=0.5;exitDx=0;exitDy=0;entryX=0.25;entryY=1;entryDx=0;entryDy=0;" edge="1" parent="1" source="jCxehiMEUvxZO1RVhI75-68" target="jCxehiMEUvxZO1RVhI75-49">
          <mxGeometry relative="1" as="geometry">
            <Array as="points">
              <mxPoint x="790" y="950" />
              <mxPoint x="790" y="710" />
              <mxPoint x="608" y="710" />
            </Array>
          </mxGeometry>
        </mxCell>
        <mxCell id="jCxehiMEUvxZO1RVhI75-68" value="По номеру телефона или id" style="rounded=1;whiteSpace=wrap;html=1;" vertex="1" parent="1">
          <mxGeometry x="1098.4736842105262" y="920" width="120" height="60" as="geometry" />
        </mxCell>
        <mxCell id="jCxehiMEUvxZO1RVhI75-75" style="edgeStyle=orthogonalEdgeStyle;rounded=0;orthogonalLoop=1;jettySize=auto;html=1;curved=0;exitX=0;exitY=1;exitDx=0;exitDy=-5;exitPerimeter=0;entryX=0.5;entryY=1;entryDx=0;entryDy=0;" edge="1" parent="1" source="jCxehiMEUvxZO1RVhI75-73" target="jCxehiMEUvxZO1RVhI75-55">
          <mxGeometry relative="1" as="geometry" />
        </mxCell>
        <mxCell id="jCxehiMEUvxZO1RVhI75-80" style="edgeStyle=orthogonalEdgeStyle;rounded=0;orthogonalLoop=1;jettySize=auto;html=1;curved=0;exitX=0;exitY=0;exitDx=0;exitDy=5;exitPerimeter=0;entryX=0.5;entryY=1;entryDx=0;entryDy=0;" edge="1" parent="1" source="jCxehiMEUvxZO1RVhI75-73" target="jCxehiMEUvxZO1RVhI75-86">
          <mxGeometry relative="1" as="geometry">
            <mxPoint x="1150" y="210" as="targetPoint" />
            <Array as="points">
              <mxPoint x="1000" y="426" />
              <mxPoint x="1000" y="319" />
              <mxPoint x="1150" y="319" />
              <mxPoint x="1150" y="170" />
            </Array>
          </mxGeometry>
        </mxCell>
        <mxCell id="jCxehiMEUvxZO1RVhI75-81" style="edgeStyle=orthogonalEdgeStyle;rounded=0;orthogonalLoop=1;jettySize=auto;html=1;curved=0;exitX=1;exitY=0;exitDx=0;exitDy=5;exitPerimeter=0;" edge="1" parent="1" source="jCxehiMEUvxZO1RVhI75-73" target="jCxehiMEUvxZO1RVhI75-89">
          <mxGeometry relative="1" as="geometry">
            <mxPoint x="1310" y="260" as="targetPoint" />
          </mxGeometry>
        </mxCell>
        <mxCell id="jCxehiMEUvxZO1RVhI75-104" style="edgeStyle=orthogonalEdgeStyle;rounded=0;orthogonalLoop=1;jettySize=auto;html=1;curved=0;exitX=1;exitY=0;exitDx=0;exitDy=5;exitPerimeter=0;" edge="1" parent="1" source="jCxehiMEUvxZO1RVhI75-73" target="jCxehiMEUvxZO1RVhI75-105">
          <mxGeometry relative="1" as="geometry">
            <mxPoint x="1637.999965122768" y="370" as="targetPoint" />
          </mxGeometry>
        </mxCell>
        <mxCell id="jCxehiMEUvxZO1RVhI75-73" value="" style="html=1;points=[[0,0,0,0,5],[0,1,0,0,-5],[1,0,0,0,5],[1,1,0,0,-5]];perimeter=orthogonalPerimeter;outlineConnect=0;targetShapes=umlLifeline;portConstraint=eastwest;newEdgeStyle={&quot;curved&quot;:0,&quot;rounded&quot;:0};rotation=90;" vertex="1" parent="1">
          <mxGeometry x="671.25" y="170" width="17.5" height="530" as="geometry" />
        </mxCell>
        <mxCell id="jCxehiMEUvxZO1RVhI75-74" style="edgeStyle=orthogonalEdgeStyle;rounded=0;orthogonalLoop=1;jettySize=auto;html=1;exitX=0;exitY=0.25;exitDx=0;exitDy=0;entryX=1;entryY=1;entryDx=0;entryDy=-5;entryPerimeter=0;" edge="1" parent="1" source="jCxehiMEUvxZO1RVhI75-49" target="jCxehiMEUvxZO1RVhI75-73">
          <mxGeometry relative="1" as="geometry" />
        </mxCell>
        <mxCell id="jCxehiMEUvxZO1RVhI75-83" value="Отправить текстовое сообщение" style="rounded=1;whiteSpace=wrap;html=1;" vertex="1" parent="1">
          <mxGeometry x="660" y="50" width="120" height="60" as="geometry" />
        </mxCell>
        <mxCell id="jCxehiMEUvxZO1RVhI75-92" style="edgeStyle=orthogonalEdgeStyle;rounded=0;orthogonalLoop=1;jettySize=auto;html=1;exitX=0;exitY=0.25;exitDx=0;exitDy=0;" edge="1" parent="1" source="jCxehiMEUvxZO1RVhI75-86" target="jCxehiMEUvxZO1RVhI75-93">
          <mxGeometry relative="1" as="geometry">
            <mxPoint x="1040" y="40" as="targetPoint" />
          </mxGeometry>
        </mxCell>
        <mxCell id="jCxehiMEUvxZO1RVhI75-86" value="Просмотр истории чата" style="rounded=1;whiteSpace=wrap;html=1;" vertex="1" parent="1">
          <mxGeometry x="1090" y="110" width="120" height="60" as="geometry" />
        </mxCell>
        <mxCell id="jCxehiMEUvxZO1RVhI75-88" value="удалить участника" style="rounded=1;whiteSpace=wrap;html=1;" vertex="1" parent="1">
          <mxGeometry x="1360" y="589.9999999999995" width="120" height="60" as="geometry" />
        </mxCell>
        <mxCell id="jCxehiMEUvxZO1RVhI75-90" style="edgeStyle=orthogonalEdgeStyle;rounded=0;orthogonalLoop=1;jettySize=auto;html=1;exitX=1;exitY=0.25;exitDx=0;exitDy=0;" edge="1" parent="1" source="jCxehiMEUvxZO1RVhI75-89" target="jCxehiMEUvxZO1RVhI75-91">
          <mxGeometry relative="1" as="geometry">
            <mxPoint x="1420" y="180" as="targetPoint" />
          </mxGeometry>
        </mxCell>
        <mxCell id="jCxehiMEUvxZO1RVhI75-89" value="Заблокировать" style="rounded=1;whiteSpace=wrap;html=1;" vertex="1" parent="1">
          <mxGeometry x="1250" y="230" width="120" height="60" as="geometry" />
        </mxCell>
        <mxCell id="jCxehiMEUvxZO1RVhI75-91" value="удаление чата" style="rounded=1;whiteSpace=wrap;html=1;" vertex="1" parent="1">
          <mxGeometry x="1360" y="150" width="120" height="60" as="geometry" />
        </mxCell>
        <mxCell id="jCxehiMEUvxZO1RVhI75-93" value="поиск по сообщению" style="rounded=1;whiteSpace=wrap;html=1;" vertex="1" parent="1">
          <mxGeometry x="980" y="10" width="120" height="60" as="geometry" />
        </mxCell>
        <mxCell id="jCxehiMEUvxZO1RVhI75-94" style="edgeStyle=orthogonalEdgeStyle;rounded=0;orthogonalLoop=1;jettySize=auto;html=1;exitX=0.25;exitY=1;exitDx=0;exitDy=0;entryX=0;entryY=0;entryDx=0;entryDy=5;entryPerimeter=0;" edge="1" parent="1" source="jCxehiMEUvxZO1RVhI75-86" target="jCxehiMEUvxZO1RVhI75-73">
          <mxGeometry relative="1" as="geometry">
            <Array as="points">
              <mxPoint x="1120" y="310" />
              <mxPoint x="960" y="310" />
              <mxPoint x="960" y="426" />
            </Array>
          </mxGeometry>
        </mxCell>
        <mxCell id="jCxehiMEUvxZO1RVhI75-97" style="edgeStyle=orthogonalEdgeStyle;rounded=0;orthogonalLoop=1;jettySize=auto;html=1;exitX=1;exitY=0.75;exitDx=0;exitDy=0;entryX=1;entryY=0;entryDx=0;entryDy=5;entryPerimeter=0;" edge="1" parent="1" source="jCxehiMEUvxZO1RVhI75-91" target="jCxehiMEUvxZO1RVhI75-45">
          <mxGeometry relative="1" as="geometry">
            <Array as="points">
              <mxPoint x="1540" y="195" />
              <mxPoint x="1540" y="760" />
              <mxPoint x="1159" y="760" />
            </Array>
          </mxGeometry>
        </mxCell>
        <mxCell id="jCxehiMEUvxZO1RVhI75-100" style="edgeStyle=orthogonalEdgeStyle;rounded=0;orthogonalLoop=1;jettySize=auto;html=1;exitX=1;exitY=0.25;exitDx=0;exitDy=0;" edge="1" parent="1" source="jCxehiMEUvxZO1RVhI75-99" target="jCxehiMEUvxZO1RVhI75-103">
          <mxGeometry relative="1" as="geometry">
            <mxPoint x="1500" y="986.7058823529414" as="targetPoint" />
          </mxGeometry>
        </mxCell>
        <mxCell id="jCxehiMEUvxZO1RVhI75-101" style="edgeStyle=orthogonalEdgeStyle;rounded=0;orthogonalLoop=1;jettySize=auto;html=1;exitX=0.75;exitY=1;exitDx=0;exitDy=0;" edge="1" parent="1" source="jCxehiMEUvxZO1RVhI75-99" target="jCxehiMEUvxZO1RVhI75-102">
          <mxGeometry relative="1" as="geometry">
            <mxPoint x="1319.7647058823532" y="1119.9999999999995" as="targetPoint" />
          </mxGeometry>
        </mxCell>
        <mxCell id="jCxehiMEUvxZO1RVhI75-99" value="просмотр профиля" style="rounded=1;whiteSpace=wrap;html=1;" vertex="1" parent="1">
          <mxGeometry x="1230" y="971.8823242187495" width="120" height="60" as="geometry" />
        </mxCell>
        <mxCell id="jCxehiMEUvxZO1RVhI75-102" value="Смена аватарки" style="rounded=1;whiteSpace=wrap;html=1;" vertex="1" parent="1">
          <mxGeometry x="1259.7647058823532" y="1089.9999999999995" width="120" height="60" as="geometry" />
        </mxCell>
        <mxCell id="jCxehiMEUvxZO1RVhI75-103" value="настройка профиля и аккаунта" style="rounded=1;whiteSpace=wrap;html=1;" vertex="1" parent="1">
          <mxGeometry x="1440" y="956.7058823529414" width="120" height="60" as="geometry" />
        </mxCell>
        <mxCell id="jCxehiMEUvxZO1RVhI75-105" value="мьют чата" style="rounded=1;whiteSpace=wrap;html=1;" vertex="1" parent="1">
          <mxGeometry x="1577.9999651227677" y="340" width="120" height="60" as="geometry" />
        </mxCell>
        <mxCell id="jCxehiMEUvxZO1RVhI75-108" style="edgeStyle=orthogonalEdgeStyle;rounded=0;orthogonalLoop=1;jettySize=auto;html=1;exitX=0;exitY=0.25;exitDx=0;exitDy=0;entryX=0;entryY=0.5;entryDx=0;entryDy=0;" edge="1" parent="1" source="jCxehiMEUvxZO1RVhI75-107" target="jCxehiMEUvxZO1RVhI75-33">
          <mxGeometry relative="1" as="geometry" />
        </mxCell>
        <mxCell id="jCxehiMEUvxZO1RVhI75-107" value="заверешение сеанса" style="rounded=1;whiteSpace=wrap;html=1;" vertex="1" parent="1">
          <mxGeometry x="450" y="1040" width="120" height="60" as="geometry" />
        </mxCell>
      </root>
    </mxGraphModel>
  </diagram>
</mxfile>
